<svg width="70" height="71" viewBox="0 0 70 71" fill="none" xmlns="http://www.w3.org/2000/svg">
<path d="M0.697266 1.1914C-0.0136719 1.58788 0.0136719 1.2871 0 12.3066C0 19.9902 0.0410156 22.6836 0.164063 22.9433C0.464844 23.5996 0.861328 23.6953 3.48633 23.6953H5.87891V24.5156C5.87891 24.9805 5.96094 25.5137 6.07031 25.7324C6.27539 26.1152 6.79492 26.4297 7.25977 26.4297C7.39649 26.4297 8.75 25.8144 10.2539 25.0625L12.9883 23.6953H17.2266V24.8848C17.2266 26.2383 17.4316 27.8105 17.6504 28.3848C17.8555 28.8906 18.4297 29.1641 19.25 29.1641H19.9336L20.002 32.1992C20.0703 35.6035 20.2481 36.5742 21.1094 38.4199C21.9844 40.2656 22.9551 41.4687 24.9102 43.1504C25.5664 43.7109 25.9356 44.1621 26.2363 44.7773C26.4688 45.2422 26.6191 45.666 26.5645 45.707C26.4961 45.7617 23.1055 46.2402 19.0176 46.7871C14.3828 47.4023 11.293 47.8672 10.8281 48.0312C8.70899 48.7832 7.08203 50.6016 6.49414 52.8848C6.31641 53.5683 6.28906 54.9629 6.28906 61.7988C6.28906 67.7871 6.33008 69.9883 6.45313 70.248C6.80859 71.041 5.18164 71 32.2656 71C59.3496 71 57.7227 71.041 58.0781 70.248C58.2012 69.9883 58.2422 67.7871 58.2422 61.7988C58.2422 52.9805 58.2422 52.8984 57.4492 51.3125C56.916 50.2324 55.5078 48.8516 54.4004 48.332C53.3066 47.8125 52.8145 47.7305 44.5703 46.6504C41.002 46.1855 38.0352 45.7617 37.9668 45.707C37.9121 45.666 38.0625 45.2422 38.2949 44.7637C38.6367 44.0937 38.9785 43.6973 39.9766 42.8359C41.0293 41.9336 41.9453 40.9492 42.3555 40.2793C42.4238 40.1836 43.2168 40.1152 44.707 40.0742C46.8535 40.0332 47.0039 40.0195 47.7422 39.6504C48.6172 39.2129 49.2598 38.5566 49.6836 37.6543C49.957 37.0664 49.9707 36.7519 50.0117 33.0879L50.0527 29.1641H57.0117L59.7461 30.5312C61.25 31.2832 62.6035 31.8984 62.7402 31.8984C63.2051 31.8984 63.7246 31.584 63.9297 31.2012C64.0391 30.9824 64.1211 30.4492 64.1211 29.9844V29.1641H66.5137C68.0723 29.1641 69.0156 29.1094 69.2481 29C70.0137 28.6445 70 28.9316 70 18.2266C70 7.52147 70.0137 7.80858 69.2481 7.45311C68.9746 7.33007 65.3789 7.28905 54.5371 7.28905C38.9375 7.28905 39.6211 7.26171 39.2656 8.04101C39.1699 8.24608 39.1016 9.05272 39.1016 10.0234V11.6504L38.3633 11.3223C36.4492 10.4746 34.2754 10.0234 32.1016 10.0234H30.8984V6.05858C30.8984 1.79296 30.8574 1.53319 30.2012 1.1914C29.6953 0.93163 21.5469 0.904286 20.9863 1.16405C20.3164 1.46483 20.0566 2.32616 20.4258 3.0371C20.7676 3.67968 21.0684 3.73436 24.7598 3.73436H28.1641L28.1367 7.16601L28.0957 10.5976L27.0156 10.9941C22.9414 12.4707 19.6738 15.7383 18.1973 19.8125L17.8008 20.8926L12.2363 21.0293L10.4316 21.959L8.61328 22.875V22.4785C8.61328 22.2461 8.54492 21.9043 8.44922 21.7129C8.14844 21.0566 7.75195 20.9609 5.12695 20.9609H2.73438V3.73436H6.15234C9.88477 3.73436 10.1855 3.67968 10.5 2.98241C10.8145 2.28515 10.5957 1.51952 9.9668 1.1914C9.43359 0.917958 1.18945 0.917958 0.697266 1.1914ZM67.2656 26.4297H64.8731C62.2481 26.4297 61.8516 26.5254 61.5508 27.1816C61.4551 27.373 61.3867 27.7148 61.3867 27.9473V28.3437L57.5586 26.4297H47.3457L47.2637 24.6797C47.1816 22.793 46.9492 21.5215 46.416 19.9902C45.7051 17.9394 44.2832 15.7656 42.6563 14.207L41.8359 13.4277V10.0234H67.2656V26.4297ZM35.3418 13.1543C38.7051 14.0293 41.6719 16.4219 43.2168 19.5254C44.1465 21.4121 44.4609 22.6836 44.4883 24.7207L44.502 26.3613H41.9727C39.4844 26.3613 39.4297 26.3613 38.6641 25.9785C37.3926 25.3633 36.5996 24.2148 36.4219 22.7793C36.2715 21.5078 35.834 20.9609 34.959 20.9609C34.7813 20.9609 33.8789 21.4531 32.9356 22.0547C29.9414 23.9961 27.3438 25.1308 24.3223 25.8008C22.627 26.1699 20.2754 26.4707 20.0566 26.334C19.8379 26.1973 20.043 23.2031 20.3574 21.9863C21.5605 17.3789 25.2246 13.9609 30.0234 12.9629C31.3223 12.6894 33.9063 12.7851 35.3418 13.1543ZM34.3984 25.4316C34.9316 26.5391 36.3398 27.9199 37.4609 28.4394C38.5684 28.959 39.4981 29.1641 40.8106 29.1641H41.8359V31.625C41.8359 34.2226 41.6445 35.6582 41.1523 36.7793L40.8926 37.3672H36.4356C31.5957 37.3672 31.3906 37.3945 31.0625 38.1191C30.8574 38.5703 30.8574 38.8984 31.0625 39.3496C31.377 40.0469 31.6777 40.1016 35.4375 40.1016H38.8965L37.8164 41.0859C36.2031 42.5625 35.6289 43.5605 35.041 45.9394C34.959 46.2676 34.5898 46.6777 33.6465 47.4844C32.9356 48.0859 32.3066 48.5781 32.2656 48.5781C32.2109 48.5781 31.5957 48.0723 30.8848 47.4707C29.9824 46.6777 29.5723 46.2266 29.4902 45.9258C28.834 43.3965 28.3418 42.5898 26.3184 40.7168C23.3652 37.9961 22.6953 36.2871 22.6953 31.4883V28.9043L23.2148 28.8086C26.9063 28.166 30.5156 26.8262 33.3184 25.0762C33.6738 24.8437 33.9883 24.6523 33.9883 24.6523C34.002 24.6523 34.1797 25.0078 34.3984 25.4316ZM47.3047 31.8984H44.5703V29.1641H47.3047V31.8984ZM47.3047 35.4531C47.3047 37.0117 46.8809 37.3672 45.0352 37.3672C43.9688 37.3672 43.8731 37.3398 43.9551 37.1211C44.0098 36.998 44.1602 36.3828 44.2832 35.7676L44.502 34.6328H47.3047V35.4531ZM28.957 49.4121C29.5859 49.9453 30.0781 50.4375 30.0508 50.4922C30.0234 50.5469 29.4219 51.0937 28.7109 51.6953L27.4258 52.8027L26.7012 50.793C26.3047 49.6855 25.9766 48.7422 25.9766 48.6875C25.9766 48.5781 26.4961 48.4961 27.2754 48.4687C27.7676 48.4414 27.9316 48.5371 28.957 49.4121ZM38.5137 48.6328C38.5547 48.6738 38.2539 49.6172 37.8438 50.7519L37.1055 52.8027L35.8203 51.6953C35.1094 51.0937 34.5078 50.5469 34.4805 50.4922C34.4531 50.4238 34.9453 49.9453 35.5742 49.4121L36.709 48.4277L37.584 48.4961C38.0625 48.5371 38.4863 48.6055 38.5137 48.6328ZM24.0898 51.6543C25.5938 55.8652 25.6895 56.084 26.1133 56.3027C26.8789 56.6992 27.2481 56.5762 28.5332 55.4687C29.3945 54.7031 29.6133 54.5801 29.4902 54.9355C29.3262 55.332 28.7109 58.668 28.5059 60.1992C28.3828 61.0605 28.2598 63.2344 28.2051 65.0254L28.1231 68.2793L25.1152 68.1973L22.75 58.9687C21.4375 53.8965 20.3984 49.6445 20.4121 49.5351C20.4395 49.3848 20.7539 49.2891 21.6016 49.1797C22.2441 49.0976 22.8594 49.0293 22.9688 49.043C23.1055 49.0566 23.4746 49.9316 24.0898 51.6543ZM42.9297 49.1797C43.7637 49.2891 44.0918 49.3984 44.1191 49.5351C44.1328 49.6445 43.0938 53.8965 41.7813 58.9687L39.416 68.1973L36.4082 68.2793L36.3262 65.0937C36.2305 61.2656 35.8203 57.916 35.0547 54.9355C34.959 54.5391 35 54.5664 35.9023 55.3594C37.2559 56.5488 37.5977 56.6855 38.3359 56.3437C38.7871 56.1387 39.0195 55.6465 40.2637 52.1465C40.8242 50.5332 41.3301 49.166 41.3711 49.1113C41.4531 48.9609 41.4395 48.9609 42.9297 49.1797ZM19.8789 58.791C21.1367 63.7402 22.1895 67.8965 22.2305 68.0195C22.2988 68.2519 21.916 68.2656 15.6543 68.2656H9.00977L9.0918 53.4316L9.47461 52.6523C9.89844 51.7773 10.582 51.1211 11.4434 50.7383C11.9902 50.4922 15.9551 49.8496 17.1035 49.8223L17.5957 49.8086L19.8789 58.791ZM50.0938 50.1504C51.4609 50.3418 52.7598 50.6016 53.0879 50.7383C53.9492 51.1211 54.6328 51.7773 55.0566 52.6523L55.4395 53.4316L55.5215 68.2656H48.877C42.6152 68.2656 42.2324 68.2519 42.3008 68.0195C42.3418 67.8965 43.3945 63.7402 44.6524 58.791L46.9356 49.8086H47.3047C47.5098 49.8086 48.7539 49.959 50.0938 50.1504ZM32.6484 56.6719C33.332 59.8984 33.6328 62.8516 33.6328 66.2285V68.2656H30.8984V66.2285C30.8984 63.9316 31.0898 61.293 31.377 59.3789C31.6641 57.5605 32.1563 55.2773 32.2656 55.2773C32.3203 55.2773 32.4844 55.9062 32.6484 56.6719Z" fill="url(#paint0_linear_174_95)"/>
<path d="M48.4121 15.6836C47.2227 16.3398 47.7285 18.2266 49.082 18.2266C49.7793 18.2266 50.4492 17.5566 50.4492 16.873C50.4492 15.8477 49.3145 15.1777 48.4121 15.6836Z" fill="url(#paint1_linear_174_95)"/>
<path d="M53.8809 15.6836C52.6914 16.3398 53.1973 18.2266 54.5508 18.2266C55.248 18.2266 55.918 17.5566 55.918 16.873C55.918 15.8477 54.7832 15.1777 53.8809 15.6836Z" fill="url(#paint2_linear_174_95)"/>
<path d="M59.3496 15.6836C58.1602 16.3398 58.666 18.2266 60.0195 18.2266C60.7168 18.2266 61.3867 17.5566 61.3867 16.873C61.3867 15.8477 60.252 15.1777 59.3496 15.6836Z" fill="url(#paint3_linear_174_95)"/>
<path d="M27.4941 30.7227C26.3047 31.3789 26.8105 33.2656 28.1641 33.2656C28.8613 33.2656 29.5312 32.5957 29.5312 31.9121C29.5312 30.8867 28.3965 30.2168 27.4941 30.7227Z" fill="url(#paint4_linear_174_95)"/>
<path d="M35.6973 30.7227C34.5078 31.3789 35.0137 33.2656 36.3672 33.2656C37.0645 33.2656 37.7344 32.5957 37.7344 31.9121C37.7344 30.8867 36.5996 30.2168 35.6973 30.7227Z" fill="url(#paint5_linear_174_95)"/>
<path d="M14.7793 1.19141C13.5898 1.84766 14.0957 3.73437 15.4492 3.73437C16.1465 3.73437 16.8164 3.06445 16.8164 2.38086C16.8164 1.35547 15.6816 0.685546 14.7793 1.19141Z" fill="url(#paint6_linear_174_95)"/>
<path d="M9.31055 10.2148C8.12109 10.8711 8.62695 12.7578 9.98047 12.7578C10.6777 12.7578 11.3477 12.0879 11.3477 11.4043C11.3477 10.3789 10.2129 9.70898 9.31055 10.2148Z" fill="url(#paint7_linear_174_95)"/>
<path d="M14.7793 10.2148C13.5898 10.8711 14.0957 12.7578 15.4492 12.7578C16.1465 12.7578 16.8164 12.0879 16.8164 11.4043C16.8164 10.3789 15.6816 9.70898 14.7793 10.2148Z" fill="url(#paint8_linear_174_95)"/>
<path d="M20.248 10.2148C19.0586 10.8711 19.5645 12.7578 20.918 12.7578C21.6152 12.7578 22.2852 12.0879 22.2852 11.4043C22.2852 10.3789 21.1504 9.70898 20.248 10.2148Z" fill="url(#paint9_linear_174_95)"/>
<defs>
<linearGradient id="paint0_linear_174_95" x1="17" y1="71" x2="79" y2="12.5" gradientUnits="userSpaceOnUse">
<stop stop-color="#00B4BD"/>
<stop offset="1" stop-color="#003566"/>
</linearGradient>
<linearGradient id="paint1_linear_174_95" x1="17" y1="71" x2="79" y2="12.5" gradientUnits="userSpaceOnUse">
<stop stop-color="#00B4BD"/>
<stop offset="1" stop-color="#003566"/>
</linearGradient>
<linearGradient id="paint2_linear_174_95" x1="17" y1="71" x2="79" y2="12.5" gradientUnits="userSpaceOnUse">
<stop stop-color="#00B4BD"/>
<stop offset="1" stop-color="#003566"/>
</linearGradient>
<linearGradient id="paint3_linear_174_95" x1="17" y1="71" x2="79" y2="12.5" gradientUnits="userSpaceOnUse">
<stop stop-color="#00B4BD"/>
<stop offset="1" stop-color="#003566"/>
</linearGradient>
<linearGradient id="paint4_linear_174_95" x1="17" y1="71" x2="79" y2="12.5" gradientUnits="userSpaceOnUse">
<stop stop-color="#00B4BD"/>
<stop offset="1" stop-color="#003566"/>
</linearGradient>
<linearGradient id="paint5_linear_174_95" x1="17" y1="71" x2="79" y2="12.5" gradientUnits="userSpaceOnUse">
<stop stop-color="#00B4BD"/>
<stop offset="1" stop-color="#003566"/>
</linearGradient>
<linearGradient id="paint6_linear_174_95" x1="17" y1="71" x2="79" y2="12.5" gradientUnits="userSpaceOnUse">
<stop stop-color="#00B4BD"/>
<stop offset="1" stop-color="#003566"/>
</linearGradient>
<linearGradient id="paint7_linear_174_95" x1="17" y1="71" x2="79" y2="12.5" gradientUnits="userSpaceOnUse">
<stop stop-color="#00B4BD"/>
<stop offset="1" stop-color="#003566"/>
</linearGradient>
<linearGradient id="paint8_linear_174_95" x1="17" y1="71" x2="79" y2="12.5" gradientUnits="userSpaceOnUse">
<stop stop-color="#00B4BD"/>
<stop offset="1" stop-color="#003566"/>
</linearGradient>
<linearGradient id="paint9_linear_174_95" x1="17" y1="71" x2="79" y2="12.5" gradientUnits="userSpaceOnUse">
<stop stop-color="#00B4BD"/>
<stop offset="1" stop-color="#003566"/>
</linearGradient>
</defs>
</svg>
