<svg width="68" height="68" viewBox="0 0 68 68" fill="none" xmlns="http://www.w3.org/2000/svg">
<path d="M11.7561 0.33983C10.5393 0.77733 9.63692 1.62499 9.1584 2.84178C8.92598 3.38866 8.91231 4.14061 8.91231 12.0566V20.6699L9.26778 21.4355C9.71895 22.4062 10.4572 23.1445 11.4279 23.5957L12.1936 23.9512L26.6857 24.0332L29.5568 27.0273C31.1291 28.6816 32.5783 30.0898 32.7834 30.1719C33.0705 30.2949 33.2482 30.2949 33.5354 30.1445C34.2053 29.8301 34.2736 29.5156 34.2736 26.6719V24.0605L35.5041 23.9785C37.1174 23.8555 37.9104 23.5137 38.7717 22.5703C39.9338 21.2988 39.8928 21.7226 39.8518 11.7695L39.8107 3.03319L39.4963 2.45897C39.0178 1.55663 38.4162 0.955064 37.5822 0.544908L36.8029 0.162096L24.635 0.134752C13.2326 0.107408 12.426 0.12108 11.7561 0.33983ZM36.5979 2.52733C36.8576 2.65038 37.2131 2.96483 37.3772 3.2246L37.6916 3.68944V12.043C37.6916 20.082 37.6779 20.4101 37.4182 20.834C36.967 21.5859 36.4748 21.7363 34.3693 21.832C32.7014 21.8867 32.4553 21.9277 32.2775 22.1601C32.1408 22.3652 32.0861 22.9121 32.0861 24.3887C32.0861 25.4961 32.0315 26.3437 31.9631 26.3437C31.8947 26.3437 31.7033 26.1797 31.5393 25.9609C31.3752 25.7558 30.4182 24.7441 29.3928 23.7187L27.5471 21.8457L20.0822 21.8047C12.8498 21.7637 12.59 21.75 12.1252 21.4902C11.8654 21.3262 11.5373 20.998 11.3732 20.7383C11.0998 20.2734 11.0998 20.0683 11.0998 11.9609C11.0998 3.7578 11.0998 3.6621 11.3869 3.27928C11.5373 3.0742 11.8791 2.75975 12.1252 2.58202L12.5764 2.28124H24.3479C35.2854 2.28124 36.1467 2.29491 36.5979 2.52733Z" fill="url(#paint0_linear_174_91)"/>
<path d="M15.844 5.74023C15.2287 6.38281 15.6115 7.38085 16.5275 7.54492C16.7736 7.58593 20.5061 7.61328 24.8127 7.58593L32.6604 7.54492L32.9885 7.1621C33.385 6.69726 33.4123 6.25976 33.0295 5.78124L32.7561 5.42578H16.1311L15.844 5.74023Z" fill="url(#paint1_linear_174_91)"/>
<path d="M16.1584 11.0586C15.4611 11.4277 15.3244 12.2754 15.8576 12.7812L16.1721 13.082H32.6467L32.9748 12.7402C33.426 12.2891 33.4123 11.7832 32.9201 11.291L32.5236 10.8945H24.4709C18.9201 10.9082 16.3498 10.9492 16.1584 11.0586Z" fill="url(#paint2_linear_174_91)"/>
<path d="M15.885 16.8418C15.6662 17.0469 15.5432 17.334 15.5432 17.5937C15.5432 17.8535 15.6662 18.1406 15.885 18.3457L16.2131 18.6875H32.6467L32.9748 18.3457C33.1936 18.1406 33.3166 17.8535 33.3166 17.5937C33.3166 17.334 33.1936 17.0469 32.9748 16.8418L32.6467 16.5H16.2131L15.885 16.8418Z" fill="url(#paint3_linear_174_91)"/>
<path d="M51.1584 8.59765C49.9143 8.83007 48.5197 9.60936 47.4533 10.6758C45.8947 12.2344 45.2111 13.8887 45.2111 16.0898C45.2111 18.1133 45.8811 19.7266 47.344 21.2851C47.8498 21.8047 48.1779 22.2422 48.0959 22.2422C47.7815 22.2422 45.9494 23.1582 44.9377 23.8281C42.8596 25.1953 40.8635 27.6289 39.8928 29.9941L39.4279 31.1016L38.799 31.1699C38.3479 31.2246 38.0881 31.334 37.8557 31.6074C37.5412 31.9766 37.5412 32.0312 37.5822 34.3555C37.6369 37.2539 37.5822 37.1855 39.3049 37.2812L40.4943 37.3496L40.5354 39.7012L40.5627 42.0527L40.9318 42.3262C41.2736 42.6133 41.383 42.6133 52.7443 42.6133H64.2014L64.967 41.957L65.049 37.2812H66.1428C67.1272 37.2812 67.2639 37.2402 67.5647 36.9394C67.9064 36.6113 67.9064 36.5703 67.9064 34.2871C67.9064 32.0723 67.8928 31.9492 67.592 31.6074C67.3596 31.334 67.1135 31.2246 66.6486 31.1699C66.0471 31.1016 65.9924 31.0605 65.842 30.5957C65.5959 29.8574 64.7893 28.2851 64.215 27.4375C63.3947 26.248 62.383 25.1953 61.1662 24.2793C60.0998 23.4726 57.8303 22.2422 57.4065 22.2422C57.2971 22.2422 57.5158 21.9414 57.8986 21.5723C59.4982 20.041 60.3049 18.1543 60.3049 16.0215C60.2912 11.1816 55.9709 7.68163 51.1584 8.59765ZM54.3986 10.9082C57.5432 11.9609 58.9924 15.3379 57.5979 18.332C57.092 19.4394 56.2717 20.2598 55.0822 20.834C54.0979 21.3262 53.9748 21.3535 52.7443 21.3535C51.5549 21.3535 51.3498 21.3125 50.5022 20.916C49.3811 20.3828 48.3967 19.4121 47.8498 18.3183C47.4943 17.5937 47.467 17.4023 47.467 16.0215C47.467 14.6406 47.4943 14.4492 47.8635 13.6973C49.0666 11.2637 51.883 10.0605 54.3986 10.9082ZM54.508 23.7461C58.3088 24.3476 61.4943 26.6855 63.258 30.1582C63.5041 30.623 63.6682 31.0332 63.6408 31.0742C63.5998 31.1016 58.6643 31.1152 52.676 31.1016L41.7658 31.0605L42.3127 30.0078C44.6369 25.5098 49.5861 22.9805 54.508 23.7461ZM65.7189 35.0937H39.7424V33.3164H65.7189V35.0937ZM62.8615 40.4258H42.7502V37.2812L52.7717 37.3086L62.7795 37.3496L62.8615 40.4258Z" fill="url(#paint4_linear_174_91)"/>
<path d="M9.86934 45.9492C8.06465 46.5234 6.67012 47.7266 5.87715 49.4082C5.42598 50.3379 5.35762 50.6113 5.31661 51.7324C5.27559 52.5117 5.33028 53.2637 5.42598 53.6601C5.67208 54.5762 6.32833 55.7656 6.94356 56.4355C7.24434 56.75 7.47676 57.0234 7.47676 57.0371C7.47676 57.0508 7.02559 57.2832 6.49239 57.5566C4.50997 58.541 2.75997 60.168 1.61153 62.082C1.02364 63.0664 0.271686 65.2676 0.148639 66.3613C0.0666079 67.1406 0.0802798 67.2226 0.408405 67.5508L0.763874 67.9062H59.717L60.0725 67.5508C60.4006 67.2226 60.4143 67.1406 60.3186 66.3613C60.1955 65.1855 59.5256 63.2031 58.924 62.1777C57.7209 60.168 56.135 58.6641 54.1389 57.6387L53.0315 57.0644L53.6604 56.2988C54.0022 55.875 54.467 55.1367 54.6994 54.6445C55.0959 53.8105 55.1232 53.6601 55.1232 52.1152C55.1232 50.5156 55.1096 50.4473 54.6311 49.4492C53.7834 47.6992 52.594 46.6328 50.8029 46.0312C50.0783 45.7851 49.6955 45.7441 48.5607 45.7851C47.3166 45.8262 47.0979 45.8809 46.1272 46.332C44.719 47.0019 43.7209 48 43.0647 49.3809C42.6408 50.2832 42.5588 50.5976 42.5041 51.7051C42.4084 53.6191 42.969 55.1914 44.2268 56.5449C44.4729 56.791 44.6643 57.0234 44.6643 57.0371C44.6643 57.0644 44.3361 57.2422 43.926 57.4199C42.7502 57.9668 41.5334 58.8418 40.467 59.9219L39.4963 60.9199L38.9768 60.291C38.2522 59.4023 36.6389 58.1582 35.4494 57.5703L34.4377 57.0781L35.0393 56.3262C36.2424 54.8496 36.6525 53.6191 36.5705 51.7324C36.5295 50.625 36.4611 50.3379 36.0236 49.4492C35.1897 47.6992 34.0002 46.6328 32.2092 46.0312C31.4846 45.7851 31.1018 45.7441 29.967 45.7851C28.7229 45.8262 28.5041 45.8809 27.5334 46.332C25.3869 47.3574 24.0334 49.3262 23.9104 51.6094C23.801 53.5371 24.3342 55.0957 25.5236 56.4082C25.8244 56.7363 26.0705 57.0234 26.0705 57.0508C26.0705 57.0644 25.7424 57.2422 25.3322 57.4199C24.1565 57.9668 22.9397 58.8418 21.8732 59.9219L20.9025 60.9199L20.383 60.291C19.6584 59.4023 18.0451 58.1582 16.8557 57.5703L15.844 57.0781L16.4455 56.3262C17.6486 54.8496 18.0588 53.6191 17.9768 51.7324C17.9357 50.625 17.8674 50.3379 17.4299 49.4492C16.5959 47.7129 15.4065 46.6328 13.6565 46.0449C12.6857 45.7168 10.758 45.6621 9.86934 45.9492ZM13.1643 48.1777C14.0803 48.4922 15.2697 49.6816 15.5842 50.5976C16.5549 53.4277 14.5725 56.2851 11.6467 56.2851C9.32247 56.2851 7.47676 54.4668 7.47676 52.1699C7.47676 51.6777 7.58614 50.9668 7.70919 50.5976C8.00997 49.7226 9.21309 48.4922 10.0744 48.1777C10.8947 47.8906 12.3303 47.8906 13.1643 48.1777ZM31.758 48.1777C32.674 48.4922 33.8635 49.6816 34.1779 50.5976C34.5471 51.6777 34.4787 52.9219 34.0139 53.8926C33.5354 54.9043 32.9475 55.4785 31.8947 55.957C31.1975 56.2715 30.9787 56.3125 30.049 56.2578C28.3674 56.1621 27.219 55.4101 26.4807 53.9336C26.1525 53.25 26.0705 52.9219 26.0705 52.1836C26.0705 51.6914 26.1799 50.9668 26.3029 50.5976C26.6037 49.7226 27.8068 48.4922 28.6682 48.1777C29.4885 47.8906 30.924 47.8906 31.758 48.1777ZM50.3518 48.1777C50.8029 48.3281 51.2678 48.6426 51.7873 49.1621C52.7443 50.1328 53.0588 50.9531 52.9768 52.3613C52.8947 54.0156 52.0334 55.2598 50.5022 55.9434C49.7775 56.2715 49.5588 56.3125 48.6428 56.2578C46.9748 56.1621 45.8127 55.4101 45.0744 53.9336C44.008 51.7871 45.0334 49.1074 47.2619 48.2051C48.0549 47.8906 49.4631 47.8769 50.3518 48.1777ZM14.0256 58.8281C15.9397 59.3066 18.1955 60.8516 19.2482 62.3965L19.6721 62.998L19.2209 64.3652L18.7834 65.7187H2.52755L2.60958 65.2676C2.66426 65.0351 2.95137 64.3105 3.26583 63.668C4.30489 61.5625 6.47872 59.7168 8.80294 58.9648C10.3342 58.459 12.385 58.418 14.0256 58.8281ZM32.6057 58.8281C34.5197 59.3066 36.8166 60.8652 37.883 62.4238L38.2795 62.9844L37.8967 64.1875C37.6779 64.8437 37.4865 65.459 37.4729 65.541C37.4318 65.6777 35.6818 65.7187 29.2697 65.7187H21.1213L21.2033 65.2676C21.258 65.0351 21.5451 64.3105 21.8596 63.668C22.8986 61.5762 25.0725 59.7168 27.3693 58.9648C28.9416 58.459 30.9514 58.4043 32.6057 58.8281ZM51.2268 58.8281C51.6369 58.9375 52.4982 59.2793 53.1408 59.5937C54.7678 60.3867 56.3947 62.0137 57.215 63.668C57.5295 64.3105 57.8166 65.0351 57.8713 65.2676L57.967 65.7187H48.8479C38.4436 65.7187 39.4826 65.8828 40.1252 64.3516C41.4377 61.2891 44.2268 59.1152 47.467 58.623C48.4514 58.4726 50.1877 58.5684 51.2268 58.8281Z" fill="url(#paint5_linear_174_91)"/>
<defs>
<linearGradient id="paint0_linear_174_91" x1="-4.66556e-06" y1="68" x2="88.5" y2="-9.50001" gradientUnits="userSpaceOnUse">
<stop stop-color="#00B4BD"/>
<stop offset="1" stop-color="#003566"/>
</linearGradient>
<linearGradient id="paint1_linear_174_91" x1="-4.66556e-06" y1="68" x2="88.5" y2="-9.50001" gradientUnits="userSpaceOnUse">
<stop stop-color="#00B4BD"/>
<stop offset="1" stop-color="#003566"/>
</linearGradient>
<linearGradient id="paint2_linear_174_91" x1="-4.66556e-06" y1="68" x2="88.5" y2="-9.50001" gradientUnits="userSpaceOnUse">
<stop stop-color="#00B4BD"/>
<stop offset="1" stop-color="#003566"/>
</linearGradient>
<linearGradient id="paint3_linear_174_91" x1="-4.66556e-06" y1="68" x2="88.5" y2="-9.50001" gradientUnits="userSpaceOnUse">
<stop stop-color="#00B4BD"/>
<stop offset="1" stop-color="#003566"/>
</linearGradient>
<linearGradient id="paint4_linear_174_91" x1="-4.66556e-06" y1="68" x2="88.5" y2="-9.50001" gradientUnits="userSpaceOnUse">
<stop stop-color="#00B4BD"/>
<stop offset="1" stop-color="#003566"/>
</linearGradient>
<linearGradient id="paint5_linear_174_91" x1="-4.66556e-06" y1="68" x2="88.5" y2="-9.50001" gradientUnits="userSpaceOnUse">
<stop stop-color="#00B4BD"/>
<stop offset="1" stop-color="#003566"/>
</linearGradient>
</defs>
</svg>
