<svg width="68" height="68" viewBox="0 0 68 68" fill="none" xmlns="http://www.w3.org/2000/svg">
<path d="M28.3538 0.230476C27.5198 0.449226 26.5218 1.00977 25.8382 1.66602L25.1956 2.28126H15.5433C5.07061 2.28126 5.13897 2.28126 3.6214 3.04688C2.65069 3.53907 1.44757 4.72852 0.928036 5.68555C0.0530357 7.33985 0.0940513 6.35548 0.0940513 25.25C0.0940513 44.1445 0.0530357 43.1602 0.928036 44.8145C1.77569 46.3867 3.6214 47.7402 5.41241 48.082C5.86358 48.1641 9.25421 48.2188 14.053 48.2188H21.9691V54.7813H20.6566C18.9066 54.7813 18.3597 54.959 17.5257 55.8067C16.5823 56.7363 16.5003 57.0918 16.5003 60.2363C16.5003 62.834 16.5003 62.8613 16.8421 63.1895L17.1702 63.5313H32.9066V65.377C32.9066 67.168 32.9202 67.25 33.2483 67.5645L33.5765 67.9063H67.2366L67.5648 67.5645C67.8929 67.25 67.9066 67.168 67.9066 65.4043C67.9066 61.9043 67.1683 59.293 65.4593 56.6953C64.803 55.6836 63.2581 54.0703 62.1644 53.25C60.9612 52.334 58.9105 51.3359 57.4886 50.9531L56.3128 50.6387L57.1194 49.9004C57.9808 49.0938 58.9788 47.6992 59.4163 46.6875L59.6761 46.0723L60.5511 46.0039C63.9827 45.7168 65.7737 41.8887 63.764 39.0996C63.2581 38.3887 62.3284 37.7324 61.5218 37.5137L60.9339 37.3633V36.3789C60.9339 34.6563 60.4144 32.7559 59.553 31.3613L59.1566 30.7188V19.5215C59.1566 12.4805 59.1019 8.06446 59.0198 7.59962C58.678 5.8086 57.3245 3.9629 55.7523 3.11524C54.1526 2.26759 54.3167 2.28126 43.68 2.28126H34.0003L33.5081 1.73438C33.221 1.41993 32.5784 0.968757 32.0179 0.69532C31.1976 0.285163 30.8558 0.203132 29.9534 0.162116C29.3519 0.121101 28.6409 0.162116 28.3538 0.230476ZM30.637 2.44532C31.389 2.66407 32.5237 3.79884 32.7425 4.55079C33.1253 5.83594 32.8519 6.86134 31.8812 7.81837C31.1839 8.5293 30.4866 8.84376 29.6253 8.84376C27.93 8.84376 26.3441 7.25782 26.3441 5.56251C26.3441 4.70118 26.6585 4.00391 27.3694 3.30665C28.3265 2.33594 29.3519 2.07618 30.637 2.44532ZM24.2249 6.65626H5.13897L4.81085 6.99805L4.46905 7.32618V38.7988L4.81085 39.127L5.13897 39.4688H35.0941V37.2813H30.7464L30.6917 34.8477C30.6234 32.2363 30.4456 31.4844 29.5843 29.9942C28.7503 28.5859 27.0276 27.2598 25.2913 26.6856L24.5667 26.4531L24.9769 25.9609C25.4964 25.291 26.0296 24.1016 26.2073 23.1992C26.4124 22.0918 26.3714 19.1524 26.139 18.2363C25.5237 15.8711 23.7054 14.0391 21.3538 13.4238C17.9222 12.5352 14.3401 14.709 13.4241 18.209C13.1507 19.2891 13.1507 22.4473 13.4241 23.5137C13.6566 24.4434 14.1624 25.4551 14.6546 26.043L14.9964 26.4531L14.2855 26.6856C12.5218 27.2598 10.8128 28.5723 9.97882 29.9942C9.11749 31.4844 8.93976 32.2363 8.8714 34.8477L8.81671 37.2813H6.65655V8.84376H25.1956L25.8655 9.47266C26.221 9.82813 26.9319 10.293 27.4241 10.5391C28.2444 10.9219 28.4495 10.9629 29.6253 10.9629C30.8011 10.9629 31.0062 10.9219 31.8265 10.5391C32.3187 10.293 33.0296 9.82813 33.3851 9.47266L34.055 8.84376H52.5941V27.4375H49.9691C46.8382 27.4375 45.9359 27.6016 44.3909 28.3945C43.598 28.8184 43.0648 29.2285 42.3812 29.9531C40.7952 31.6211 40.0296 33.4805 39.9066 35.9277L39.8382 37.377L39.2366 37.541C38.8948 37.6231 38.348 37.8828 38.0198 38.1152C35.1351 40.0977 35.7776 44.6231 39.0999 45.7852C39.7835 46.0176 39.305 46.0176 22.6526 45.9902L5.49444 45.9629L4.63311 45.4981C3.68975 44.9922 3.14288 44.418 2.66436 43.4336L2.34991 42.8184V7.68165L2.69171 6.99805C3.2796 5.82227 4.40069 4.89259 5.63116 4.5918C5.86358 4.53712 10.1292 4.4961 15.1331 4.48243L24.2249 4.46876V6.65626ZM54.3714 4.85157C55.3558 5.33009 55.93 5.87696 56.4359 6.82032L56.9007 7.68165L56.9827 28.6543L56.1214 28.2715C55.6429 28.0527 55.1507 27.8477 55.0276 27.793C54.7952 27.7246 54.7816 27.1094 54.7816 17.5254V7.32618L54.4398 6.99805L54.1116 6.65626H35.0257V4.45509L53.7562 4.53712L54.3714 4.85157ZM21.5726 15.8027C22.5159 16.2539 23.1038 16.8145 23.6234 17.7578L24.0882 18.6191V23.1309L23.6234 23.9922C23.1038 24.9492 22.6663 25.3731 21.6409 25.9063C21.053 26.207 20.7659 26.2617 19.7816 26.2617C18.7151 26.2754 18.5511 26.2344 17.7581 25.8106C16.8148 25.3047 16.2679 24.7305 15.7894 23.7461C15.5023 23.1856 15.4749 22.9395 15.4749 20.875C15.4749 18.7559 15.4886 18.5781 15.8167 17.9356C16.3909 16.7598 17.4984 15.8574 18.7562 15.5293C19.4261 15.3516 20.9163 15.502 21.5726 15.8027ZM21.9144 28.9688C21.8187 29.502 21.4905 29.9805 20.9573 30.3633C20.4241 30.7598 19.139 30.7598 18.6058 30.3633C18.0726 29.9805 17.7444 29.502 17.6487 28.9688L17.5667 28.5313H22.0101L21.9144 28.9688ZM15.5296 29.3789C16.2405 32.5918 19.7405 33.9043 22.4339 31.9902C23.1585 31.4844 23.8011 30.418 24.0335 29.3789C24.1292 28.9961 24.2796 28.668 24.3616 28.668C24.4573 28.668 24.9632 28.8867 25.4827 29.1465C26.6585 29.7344 27.4515 30.5547 28.0257 31.7852C28.4495 32.6875 28.4632 32.7559 28.5042 34.9844L28.5589 37.2813H26.3441V32.9063H24.1566V37.2813H15.4066V32.9063H13.2191V37.2813H11.0042L11.0589 34.9844C11.0999 32.7559 11.1136 32.6875 11.5374 31.7852C12.1116 30.5547 12.9046 29.7344 14.0804 29.1465C14.5999 28.8867 15.1058 28.668 15.2015 28.668C15.2835 28.668 15.4339 28.9961 15.5296 29.3789ZM54.7542 29.9942C56.4359 30.6777 57.7073 32.0859 58.3636 33.9727C58.6234 34.752 58.678 35.1484 58.6644 36.5977C58.6644 38.0742 58.6097 38.457 58.2952 39.4004C57.7757 40.9863 57.0648 42.0801 55.6155 43.5977L54.3441 44.9375H46.4691L45.1976 43.5977C44.4866 42.8594 43.68 41.8613 43.3929 41.3692C41.0823 37.418 41.9163 32.332 45.2249 30.4043C46.4007 29.7207 47.0296 29.625 50.68 29.666C53.7425 29.6934 54.098 29.7207 54.7542 29.9942ZM40.5491 42.0938C40.5628 43.3516 40.5218 43.8438 40.3987 43.8438C40.3167 43.8438 39.9749 43.7207 39.6605 43.5567C38.0745 42.791 38.0608 40.5352 39.6468 39.7559L40.221 39.4688L40.3851 39.9199C40.4671 40.166 40.5491 41.1367 40.5491 42.0938ZM61.9183 40.3164C62.8343 41.3828 62.4241 43.1055 61.1116 43.6524C60.2503 44.0215 60.2503 44.0215 60.2503 42.1895C60.2503 41.2734 60.3187 40.2891 60.4007 40.002L60.5648 39.4824L61.0569 39.6875C61.3304 39.7969 61.7132 40.084 61.9183 40.3164ZM55.2327 47.125L56.5316 45.8535C57.8851 44.5274 57.9534 44.541 57.3109 45.9766C56.846 47.0293 56.0394 48.0274 55.1234 48.7246C53.4964 49.9551 52.3753 50.3379 50.4066 50.3379C48.4378 50.3379 47.3167 49.9551 45.6898 48.7246C44.7737 48.0274 43.9671 47.0293 43.5023 45.9766C42.8597 44.541 42.928 44.5274 44.2816 45.8535L45.5804 47.125H55.2327ZM35.0941 54.7813H24.1566V48.2188H35.0941V54.7813ZM42.5179 48.6152C42.6409 48.8203 43.1331 49.3672 43.6253 49.8184L44.5003 50.6387L43.4066 50.9395C41.4788 51.4453 39.1956 52.6758 37.8011 53.9336L37.2816 54.3984V48.2188H42.2855L42.5179 48.6152ZM56.6956 52.9766C61.0296 54.207 64.1878 57.3652 65.3226 61.6172C65.473 62.1777 65.637 63.3399 65.678 64.1738L65.7601 65.7188H35.0941V64.707C35.0941 59.7441 38.1292 55.2734 42.764 53.4277C44.6234 52.6758 45.43 52.6074 50.8167 52.6484C55.2874 52.6758 55.7523 52.7031 56.6956 52.9766ZM35.0667 57.0645C35.0394 57.1328 34.7523 57.6934 34.4378 58.3359C34.1097 58.9785 33.7269 59.9082 33.5765 60.4141L33.2894 61.3438H18.6878V59.4981C18.6878 57.707 18.7015 57.625 19.0296 57.3106L19.3577 56.9688H27.2327C31.5667 56.9688 35.0941 57.0098 35.0667 57.0645Z" fill="url(#paint0_linear_174_99)"/>
<path d="M28.5316 6.65626H30.7191V4.46876H28.5316V6.65626Z" fill="url(#paint1_linear_174_99)"/>
<path d="M40.3301 12.9863C37.9376 15.3789 37.9376 15.3789 39.2227 16.7188L40.0704 17.6074L38.6758 18.9883L37.295 20.3828L36.4063 19.5352C35.0665 18.25 35.0665 18.25 32.6739 20.6426C30.1036 23.1992 30.1172 22.9121 32.6055 25.4141C33.6309 26.4668 34.752 27.4922 35.0938 27.7109C36.7754 28.7774 38.8809 28.7774 40.5626 27.7109C41.3145 27.2324 47.0977 21.4082 47.4942 20.7383C48.1915 19.5625 48.3829 18.0586 48.0001 16.7598C47.6719 15.625 47.1661 14.9414 45.1016 12.9043C42.5997 10.4297 42.8868 10.416 40.3301 12.9863ZM44.2813 15.2285C45.4571 16.4317 45.7579 16.8145 45.8946 17.3203C46.0723 18.0039 46.004 18.9063 45.7032 19.4805C45.5938 19.6856 44.1036 21.2442 42.3809 22.9395C39.4141 25.8789 39.2227 26.043 38.5528 26.207C37.9786 26.3301 37.6778 26.3301 37.1172 26.1934C36.4747 26.043 36.2286 25.8652 34.8887 24.5527L33.3848 23.0762L34.2325 22.2149L35.0801 21.3672L35.9688 22.2149C37.336 23.5274 37.2403 23.5684 40.2481 20.5606C43.2559 17.5527 43.2149 17.6484 41.9024 16.2813L41.0547 15.3926L41.8614 14.5859C42.3126 14.1348 42.709 13.7656 42.7501 13.7656C42.8047 13.7656 43.4883 14.4219 44.2813 15.2285Z" fill="url(#paint2_linear_174_99)"/>
<defs>
<linearGradient id="paint0_linear_174_99" x1="3.50049" y1="68" x2="75.0005" y2="-4.5" gradientUnits="userSpaceOnUse">
<stop stop-color="#00B4BD"/>
<stop offset="1" stop-color="#003566"/>
</linearGradient>
<linearGradient id="paint1_linear_174_99" x1="3.50049" y1="68" x2="75.0005" y2="-4.5" gradientUnits="userSpaceOnUse">
<stop stop-color="#00B4BD"/>
<stop offset="1" stop-color="#003566"/>
</linearGradient>
<linearGradient id="paint2_linear_174_99" x1="3.50049" y1="68" x2="75.0005" y2="-4.5" gradientUnits="userSpaceOnUse">
<stop stop-color="#00B4BD"/>
<stop offset="1" stop-color="#003566"/>
</linearGradient>
</defs>
</svg>
