<svg width="72" height="62" viewBox="0 0 72 62" fill="none" xmlns="http://www.w3.org/2000/svg">
<path d="M29.7793 0.716797C29.4785 1.00391 29.4375 1.16797 29.4375 2.01562C29.4375 2.86328 29.4785 3.02734 29.7793 3.31445C29.9844 3.5332 30.2715 3.65625 30.5312 3.65625C30.9824 3.65625 31.625 3.13672 31.625 2.76758C31.625 2.58984 33.0059 2.5625 44.75 2.5625H57.875V17.875H55.4824C53.1172 17.875 53.0762 17.875 52.748 18.2168C52.4199 18.5312 52.4062 18.627 52.4062 20.1582V21.7578L50.4512 19.8164L48.4824 17.875H46.9512C45.502 17.875 45.4063 17.8887 45.0918 18.2168C44.6406 18.6543 44.6406 19.2832 45.0918 19.7207C45.3789 20.0215 45.543 20.0625 46.4863 20.0625H47.5391L50.2871 22.7969C52.7344 25.2305 53.0898 25.5312 53.4863 25.5312C53.7734 25.5312 54.0332 25.4082 54.252 25.1895C54.5938 24.8613 54.5938 24.8203 54.5938 22.4551V20.0625H56.9863C59.3516 20.0625 59.3926 20.0625 59.7207 19.7207L60.0625 19.3926V1.04492L59.7207 0.716797L59.3926 0.375H30.1074L29.7793 0.716797Z" fill="url(#paint0_linear_174_87)"/>
<path d="M12.2793 6.18555L11.9375 6.51367V24.8613L12.2793 25.1895C12.6074 25.5312 12.6484 25.5312 15.0137 25.5312H17.4063V27.9238C17.4063 30.2891 17.4063 30.3301 17.748 30.6582C17.9668 30.877 18.2266 31 18.5137 31C18.9102 31 19.2656 30.6992 21.7129 28.2656L24.4609 25.5312H41.8926L42.2207 25.1895L42.5625 24.8613V6.51367L42.2207 6.18555L41.8926 5.84375H20.2637L19.9355 6.18555C19.7168 6.39062 19.5938 6.67773 19.5938 6.9375C19.5938 7.19727 19.7168 7.48438 19.9355 7.68945L20.2637 8.03125H40.375V23.3438H23.5176L21.5488 25.2852L19.5938 27.2266V25.627C19.5938 24.0957 19.5801 24 19.252 23.6855C18.9238 23.3438 18.8828 23.3438 16.5176 23.3438H14.125V8.03125H15.9707C17.7617 8.03125 17.8438 8.01758 18.1582 7.68945C18.377 7.48438 18.5 7.19727 18.5 6.9375C18.5 6.67773 18.377 6.39062 18.1582 6.18555C17.8301 5.84375 17.8027 5.84375 15.2188 5.84375C12.6348 5.84375 12.6074 5.84375 12.2793 6.18555Z" fill="url(#paint1_linear_174_87)"/>
<path d="M21.0293 14.9355C20.3457 15.6055 20.8242 16.7812 21.7812 16.7812C22.3418 16.7812 22.875 16.248 22.875 15.6875C22.875 15.127 22.3418 14.5938 21.7812 14.5938C21.5215 14.5938 21.2344 14.7168 21.0293 14.9355Z" fill="url(#paint2_linear_174_87)"/>
<path d="M26.498 14.9355C25.8145 15.6055 26.293 16.7812 27.25 16.7812C27.8105 16.7812 28.3438 16.248 28.3438 15.6875C28.3438 15.127 27.8105 14.5938 27.25 14.5938C26.9902 14.5938 26.7031 14.7168 26.498 14.9355Z" fill="url(#paint3_linear_174_87)"/>
<path d="M31.9668 14.9355C31.2832 15.6055 31.7617 16.7812 32.7188 16.7812C33.2793 16.7812 33.8125 16.248 33.8125 15.6875C33.8125 15.127 33.2793 14.5938 32.7188 14.5938C32.459 14.5938 32.1719 14.7168 31.9668 14.9355Z" fill="url(#paint4_linear_174_87)"/>
<path d="M13.6465 31.1641C12.4297 31.3828 10.8574 32.2578 9.8457 33.2559C8.79297 34.2949 7.95898 35.8535 7.71289 37.207C7.52148 38.2598 7.52148 41.2402 7.71289 42.293C7.94531 43.6191 8.7793 45.1641 9.80469 46.2031C11.3633 47.7617 12.9902 48.4316 15.2188 48.4316C16.791 48.4316 17.543 48.2402 18.9375 47.5156C20.4277 46.7227 21.8496 45.0273 22.4648 43.2637C22.8477 42.2109 22.998 38.8203 22.752 37.3301C22.0273 33.1465 17.9121 30.3574 13.6465 31.1641ZM17.4609 33.707C18.7051 34.2812 19.498 35.0742 20.1133 36.3047L20.6191 37.3438V42.1562L20.1133 43.1953C19.498 44.4395 18.7051 45.2051 17.4336 45.8066C16.5996 46.2031 16.3945 46.2441 15.2188 46.2441C14.043 46.2441 13.8379 46.2031 13.0039 45.8066C11.7324 45.2051 10.9395 44.4395 10.3242 43.1953L9.81836 42.1562V37.3574L10.2559 36.4414C10.8027 35.2793 11.582 34.4316 12.6074 33.8984C13.6738 33.3242 14.2754 33.1875 15.5195 33.2422C16.3535 33.2832 16.7773 33.3926 17.4609 33.707Z" fill="url(#paint5_linear_174_87)"/>
<path d="M34.4277 31.1641C34.0586 31.2324 33.252 31.5332 32.6367 31.8203C31.1191 32.5586 29.9023 33.7617 29.1777 35.2793C28.5078 36.6738 28.3438 37.5488 28.3438 39.75C28.3438 41.9512 28.5078 42.8262 29.1641 44.207C30.0527 46.0664 31.6934 47.4609 33.8125 48.1719C34.3594 48.3633 34.9609 48.4316 36 48.4316C37.5723 48.4316 38.3242 48.2402 39.7188 47.5156C41.209 46.7227 42.6309 45.0273 43.2461 43.2637C43.6289 42.2109 43.7793 38.8203 43.5332 37.3301C42.8086 33.1465 38.6934 30.3574 34.4277 31.1641ZM38.2422 33.707C39.4863 34.2812 40.2793 35.0742 40.8945 36.3047L41.4004 37.3438V42.1562L40.8945 43.1953C40.2793 44.4395 39.4863 45.2051 38.2148 45.8066C37.3809 46.2031 37.1758 46.2441 36 46.2441C34.8242 46.2441 34.6191 46.2031 33.7852 45.8066C32.5137 45.2051 31.7207 44.4395 31.1055 43.1953L30.5996 42.1562V37.3574L31.0371 36.4414C31.584 35.2793 32.3633 34.4316 33.3887 33.8984C34.4551 33.3242 35.0566 33.1875 36.3008 33.2422C37.1348 33.2832 37.5586 33.3926 38.2422 33.707Z" fill="url(#paint6_linear_174_87)"/>
<path d="M55.209 31.1641C54.8398 31.2324 54.0332 31.5332 53.418 31.8203C51.9004 32.5586 50.6836 33.7617 49.959 35.2793C49.2891 36.6738 49.125 37.5488 49.125 39.75C49.125 41.9512 49.2891 42.8262 49.9453 44.207C50.834 46.0664 52.4746 47.4609 54.5938 48.1719C55.1406 48.3633 55.7422 48.4316 56.7812 48.4316C58.3535 48.4316 59.1055 48.2402 60.5 47.5156C61.9902 46.7227 63.4121 45.0273 64.0273 43.2637C64.4102 42.2109 64.5605 38.8203 64.3145 37.3301C63.5898 33.1465 59.4746 30.3574 55.209 31.1641ZM59.0234 33.707C60.2676 34.2812 61.0605 35.0742 61.6758 36.3047L62.1816 37.3438V42.1562L61.6758 43.1953C61.0605 44.4395 60.2676 45.2051 58.9961 45.8066C58.1621 46.2031 57.957 46.2441 56.7812 46.2441C55.6055 46.2441 55.4004 46.2031 54.5664 45.8066C53.2949 45.2051 52.502 44.4395 51.8867 43.1953L51.3809 42.1562V37.3574L51.8184 36.4414C52.3652 35.2793 53.1445 34.4316 54.1699 33.8984C55.2363 33.3242 55.8379 33.1875 57.082 33.2422C57.916 33.2832 58.3398 33.3926 59.0234 33.707Z" fill="url(#paint7_linear_174_87)"/>
<path d="M11.3906 49.6758C9.96875 49.7988 7.27539 50.1816 6.05859 50.4277C3.66602 50.9199 2.46289 51.7539 1.58789 53.5312L1.06836 54.5703L1.02734 57.7559L0.972656 60.9277L1.32812 61.2832C1.7793 61.7344 2.4082 61.7344 2.8457 61.2832C3.1875 60.9551 3.1875 60.9414 3.1875 58.1934C3.1875 55.1035 3.26953 54.6523 3.98047 53.832C4.73242 52.957 5.26562 52.752 8.17773 52.2734C11.0898 51.7813 15.6562 51.6445 19.1016 51.918C20.4004 52.0273 20.9062 52.0273 21.1387 51.9043C21.5625 51.6719 21.7676 51.3574 21.7812 50.9473C21.7812 50.373 21.3711 49.9766 20.6055 49.8535C19.8945 49.7305 12.4297 49.5801 11.3906 49.6758Z" fill="url(#paint8_linear_174_87)"/>
<path d="M32.1719 49.6758C30.7773 49.7988 28.0566 50.1816 26.8398 50.4277C24.4473 50.9199 23.2441 51.7539 22.3691 53.5312L21.8496 54.5703L21.8086 57.7559L21.7539 60.9277L22.1094 61.2832C22.5605 61.7344 23.1895 61.7344 23.627 61.2832C23.9688 60.9551 23.9688 60.9414 23.9688 58.1934C23.9688 55.1035 24.0508 54.6523 24.7617 53.832C25.5137 52.957 26.0469 52.752 28.959 52.2734C31.8574 51.7813 36.793 51.6309 40.1699 51.918C42.4258 52.123 45.6113 52.6836 46.2402 53.0117C46.9238 53.3535 47.6758 54.2285 47.8672 54.9121C47.9766 55.2266 48.0312 56.498 48.0312 58.1934C48.0312 60.9414 48.0312 60.9551 48.373 61.2832C48.8105 61.7344 49.4395 61.7344 49.8906 61.2832L50.2461 60.9277L50.1914 57.7559L50.1504 54.5703L49.6309 53.5312C48.7969 51.8223 47.5254 50.9062 45.4062 50.4688C42.5898 49.8809 40.7578 49.7168 36.752 49.6621C34.5781 49.6484 32.5137 49.6484 32.1719 49.6758Z" fill="url(#paint9_linear_174_87)"/>
<path d="M52.4883 49.7441C51.5723 49.8125 50.875 49.9355 50.6836 50.0723C50.041 50.4961 50.0957 51.4941 50.7656 51.8496C51.1211 52.0273 51.4219 52.041 52.8984 51.918C56.7266 51.6172 60.9922 51.7813 64.5469 52.3965C66.7344 52.7793 67.3359 53.0254 68.0195 53.832C68.7305 54.6523 68.8125 55.1035 68.8125 58.1934C68.8125 60.9414 68.8125 60.9551 69.1543 61.2832C69.5918 61.7344 70.2207 61.7344 70.6719 61.2832L71.0273 60.9277L70.9727 57.7559L70.9316 54.5703L70.4121 53.5312C69.5781 51.8223 68.3477 50.9336 66.2148 50.4824C63.4805 49.8945 61.5391 49.7168 57.7383 49.6621C55.6738 49.6348 53.3086 49.6758 52.4883 49.7441Z" fill="url(#paint10_linear_174_87)"/>
<defs>
<linearGradient id="paint0_linear_174_87" x1="7" y1="62" x2="75" y2="-13.5" gradientUnits="userSpaceOnUse">
<stop stop-color="#00B4BD"/>
<stop offset="1" stop-color="#003566"/>
</linearGradient>
<linearGradient id="paint1_linear_174_87" x1="7" y1="62" x2="75" y2="-13.5" gradientUnits="userSpaceOnUse">
<stop stop-color="#00B4BD"/>
<stop offset="1" stop-color="#003566"/>
</linearGradient>
<linearGradient id="paint2_linear_174_87" x1="7" y1="62" x2="75" y2="-13.5" gradientUnits="userSpaceOnUse">
<stop stop-color="#00B4BD"/>
<stop offset="1" stop-color="#003566"/>
</linearGradient>
<linearGradient id="paint3_linear_174_87" x1="7" y1="62" x2="75" y2="-13.5" gradientUnits="userSpaceOnUse">
<stop stop-color="#00B4BD"/>
<stop offset="1" stop-color="#003566"/>
</linearGradient>
<linearGradient id="paint4_linear_174_87" x1="7" y1="62" x2="75" y2="-13.5" gradientUnits="userSpaceOnUse">
<stop stop-color="#00B4BD"/>
<stop offset="1" stop-color="#003566"/>
</linearGradient>
<linearGradient id="paint5_linear_174_87" x1="7" y1="62" x2="75" y2="-13.5" gradientUnits="userSpaceOnUse">
<stop stop-color="#00B4BD"/>
<stop offset="1" stop-color="#003566"/>
</linearGradient>
<linearGradient id="paint6_linear_174_87" x1="7" y1="62" x2="75" y2="-13.5" gradientUnits="userSpaceOnUse">
<stop stop-color="#00B4BD"/>
<stop offset="1" stop-color="#003566"/>
</linearGradient>
<linearGradient id="paint7_linear_174_87" x1="7" y1="62" x2="75" y2="-13.5" gradientUnits="userSpaceOnUse">
<stop stop-color="#00B4BD"/>
<stop offset="1" stop-color="#003566"/>
</linearGradient>
<linearGradient id="paint8_linear_174_87" x1="7" y1="62" x2="75" y2="-13.5" gradientUnits="userSpaceOnUse">
<stop stop-color="#00B4BD"/>
<stop offset="1" stop-color="#003566"/>
</linearGradient>
<linearGradient id="paint9_linear_174_87" x1="7" y1="62" x2="75" y2="-13.5" gradientUnits="userSpaceOnUse">
<stop stop-color="#00B4BD"/>
<stop offset="1" stop-color="#003566"/>
</linearGradient>
<linearGradient id="paint10_linear_174_87" x1="7" y1="62" x2="75" y2="-13.5" gradientUnits="userSpaceOnUse">
<stop stop-color="#00B4BD"/>
<stop offset="1" stop-color="#003566"/>
</linearGradient>
</defs>
</svg>
