<svg width="196" height="55" viewBox="0 0 196 55" fill="none" xmlns="http://www.w3.org/2000/svg">
<path d="M2.156 20V0.399999H5.74V16.808H13.804V20H2.156ZM24.8172 20.392C22.9505 20.392 21.2892 19.972 19.8332 19.132C18.3772 18.2827 17.2339 17.0973 16.4032 15.576C15.5725 14.0453 15.1572 12.2533 15.1572 10.2C15.1572 8.14667 15.5725 6.35933 16.4032 4.838C17.2339 3.30733 18.3772 2.122 19.8332 1.282C21.2892 0.432666 22.9505 0.0079987 24.8172 0.0079987C26.6839 0.0079987 28.3452 0.432666 29.8012 1.282C31.2572 2.122 32.4005 3.30733 33.2312 4.838C34.0619 6.35933 34.4772 8.14667 34.4772 10.2C34.4772 12.2533 34.0619 14.0453 33.2312 15.576C32.4005 17.0973 31.2572 18.2827 29.8012 19.132C28.3452 19.972 26.6839 20.392 24.8172 20.392ZM24.8172 16.92C26.1239 16.92 27.2159 16.6307 28.0932 16.052C28.9705 15.4733 29.6285 14.68 30.0672 13.672C30.5059 12.6547 30.7252 11.4973 30.7252 10.2C30.7252 8.90267 30.5059 7.75 30.0672 6.742C29.6285 5.72467 28.9705 4.92667 28.0932 4.348C27.2159 3.76933 26.1239 3.48 24.8172 3.48C23.5105 3.48 22.4185 3.76933 21.5412 4.348C20.6639 4.92667 20.0059 5.72467 19.5672 6.742C19.1285 7.75 18.9092 8.90267 18.9092 10.2C18.9092 11.4973 19.1285 12.6547 19.5672 13.672C20.0059 14.68 20.6639 15.4733 21.5412 16.052C22.4185 16.6307 23.5105 16.92 24.8172 16.92ZM38.1666 20V0.399999H45.3346C46.688 0.399999 47.8686 0.614665 48.8766 1.044C49.894 1.47333 50.6826 2.12667 51.2426 3.004C51.8026 3.88133 52.0826 4.992 52.0826 6.336C52.0826 7.77333 51.7746 8.91667 51.1586 9.766C50.552 10.606 49.7493 11.2733 48.7506 11.768L53.1746 20H49.1706L45.3906 12.72C45.3626 12.72 45.3393 12.72 45.3206 12.72C45.302 12.72 45.2786 12.72 45.2506 12.72H41.7506V20H38.1666ZM41.7506 9.724H44.3826C45.8573 9.724 46.884 9.42533 47.4626 8.828C48.0413 8.22133 48.3306 7.456 48.3306 6.532C48.3306 5.552 48.046 4.78667 47.4766 4.236C46.9073 3.676 45.9226 3.396 44.5226 3.396H41.7506V9.724ZM65.13 20.392C63.142 20.392 61.392 19.972 59.88 19.132C58.368 18.2827 57.1873 17.0973 56.338 15.576C55.498 14.0453 55.078 12.2533 55.078 10.2C55.078 8.14667 55.512 6.35933 56.38 4.838C57.2573 3.30733 58.4613 2.122 59.992 1.282C61.5226 0.432666 63.2726 0.0079987 65.242 0.0079987C66.278 0.0079987 67.2253 0.119999 68.084 0.343999C68.9426 0.558666 69.6846 0.829333 70.31 1.156L69.918 4.572C69.2086 4.24533 68.476 3.97933 67.72 3.774C66.9733 3.55933 66.138 3.452 65.214 3.452C63.842 3.452 62.694 3.74133 61.77 4.32C60.8553 4.89867 60.1646 5.69667 59.698 6.714C59.2313 7.73133 58.998 8.89333 58.998 10.2C58.998 11.5067 59.2266 12.6687 59.684 13.686C60.1413 14.7033 60.8226 15.5013 61.728 16.08C62.6426 16.6587 63.7766 16.948 65.13 16.948C66.0726 16.948 66.9173 16.8453 67.664 16.64C68.4106 16.4347 69.162 16.164 69.918 15.828L70.31 19.244C69.5726 19.5893 68.7606 19.8647 67.874 20.07C66.9966 20.2847 66.082 20.392 65.13 20.392ZM84.5725 15.352H76.3685V12.216H84.5725V15.352ZM80.0085 3.9H80.9325L75.2765 20H71.8045L78.7765 0.399999H82.1645L89.1365 20H85.6645L80.0085 3.9ZM107.494 20.392C105.422 20.392 103.648 19.972 102.174 19.132C100.699 18.2827 99.5695 17.0927 98.7855 15.562C98.0015 14.0313 97.6095 12.2347 97.6095 10.172C97.6095 8.128 98.0435 6.34533 98.9115 4.824C99.7889 3.29333 100.998 2.108 102.538 1.268C104.078 0.427999 105.851 0.0079987 107.858 0.0079987C108.894 0.0079987 109.883 0.115332 110.826 0.329999C111.778 0.544665 112.59 0.819999 113.262 1.156L112.87 4.572C112.17 4.24533 111.395 3.97933 110.546 3.774C109.706 3.55933 108.81 3.452 107.858 3.452C106.402 3.452 105.207 3.746 104.274 4.334C103.34 4.91267 102.65 5.706 102.202 6.714C101.754 7.71267 101.53 8.84667 101.53 10.116C101.53 11.4507 101.754 12.6313 102.202 13.658C102.659 14.6847 103.34 15.492 104.246 16.08C105.151 16.6587 106.28 16.948 107.634 16.948C108.044 16.948 108.474 16.92 108.922 16.864C109.379 16.808 109.846 16.7333 110.322 16.64V13.14H107.634V10.172H113.906V18.908C113.224 19.3093 112.319 19.6593 111.19 19.958C110.07 20.2473 108.838 20.392 107.494 20.392ZM128.635 15.352H120.431V12.216H128.635V15.352ZM124.071 3.9H124.995L119.339 20H115.867L122.839 0.399999H126.227L133.199 20H129.727L124.071 3.9ZM135.999 20V0.399999H143.167C144.521 0.399999 145.701 0.614665 146.709 1.044C147.727 1.47333 148.515 2.12667 149.075 3.004C149.635 3.88133 149.915 4.992 149.915 6.336C149.915 7.77333 149.607 8.91667 148.991 9.766C148.385 10.606 147.582 11.2733 146.583 11.768L151.007 20H147.003L143.223 12.72C143.195 12.72 143.172 12.72 143.153 12.72C143.135 12.72 143.111 12.72 143.083 12.72H139.583V20H135.999ZM139.583 9.724H142.215C143.69 9.724 144.717 9.42533 145.295 8.828C145.874 8.22133 146.163 7.456 146.163 6.532C146.163 5.552 145.879 4.78667 145.309 4.236C144.74 3.676 143.755 3.396 142.355 3.396H139.583V9.724ZM162.963 20.392C160.975 20.392 159.225 19.972 157.713 19.132C156.201 18.2827 155.02 17.0973 154.171 15.576C153.331 14.0453 152.911 12.2533 152.911 10.2C152.911 8.14667 153.345 6.35933 154.213 4.838C155.09 3.30733 156.294 2.122 157.825 1.282C159.355 0.432666 161.105 0.0079987 163.075 0.0079987C164.111 0.0079987 165.058 0.119999 165.917 0.343999C166.775 0.558666 167.517 0.829333 168.143 1.156L167.751 4.572C167.041 4.24533 166.309 3.97933 165.553 3.774C164.806 3.55933 163.971 3.452 163.047 3.452C161.675 3.452 160.527 3.74133 159.603 4.32C158.688 4.89867 157.997 5.69667 157.531 6.714C157.064 7.73133 156.831 8.89333 156.831 10.2C156.831 11.5067 157.059 12.6687 157.517 13.686C157.974 14.7033 158.655 15.5013 159.561 16.08C160.475 16.6587 161.609 16.948 162.963 16.948C163.905 16.948 164.75 16.8453 165.497 16.64C166.243 16.4347 166.995 16.164 167.751 15.828L168.143 19.244C167.405 19.5893 166.593 19.8647 165.707 20.07C164.829 20.2847 163.915 20.392 162.963 20.392ZM171.709 20V0.399999H175.293V20H171.709ZM190.867 15.352H182.663V12.216H190.867V15.352ZM186.303 3.9H187.227L181.571 20H178.099L185.071 0.399999H188.459L195.431 20H191.959L186.303 3.9Z" fill="#003566"/>
<path d="M5.964 54V37.872H0.42V34.4H15.092V37.872H9.548V54H5.964ZM18.4439 54V34.4H25.6119C26.9652 34.4 28.1459 34.6147 29.1539 35.044C30.1712 35.4733 30.9599 36.1267 31.5199 37.004C32.0799 37.8813 32.3599 38.992 32.3599 40.336C32.3599 41.7733 32.0519 42.9167 31.4359 43.766C30.8292 44.606 30.0266 45.2733 29.0279 45.768L33.4519 54H29.4479L25.6679 46.72C25.6399 46.72 25.6166 46.72 25.5979 46.72C25.5792 46.72 25.5559 46.72 25.5279 46.72H22.0279V54H18.4439ZM22.0279 43.724H24.6599C26.1346 43.724 27.1612 43.4253 27.7399 42.828C28.3186 42.2213 28.6079 41.456 28.6079 40.532C28.6079 39.552 28.3232 38.7867 27.7539 38.236C27.1846 37.676 26.1999 37.396 24.7999 37.396H22.0279V43.724ZM47.4513 49.352H39.2473V46.216H47.4513V49.352ZM42.8873 37.9H43.8113L38.1553 54H34.6833L41.6553 34.4H45.0433L52.0153 54H48.5433L42.8873 37.9ZM55.0393 54V34.4H62.3753C64.2419 34.4 65.9033 34.792 67.3593 35.576C68.8153 36.3507 69.9586 37.4707 70.7893 38.936C71.6199 40.392 72.0353 42.1467 72.0353 44.2C72.0353 46.2533 71.6199 48.0127 70.7893 49.478C69.9586 50.934 68.8153 52.054 67.3593 52.838C65.9033 53.6127 64.2419 54 62.3753 54H55.0393ZM58.6233 50.808H62.3753C63.6446 50.808 64.7039 50.542 65.5533 50.01C66.4026 49.478 67.0419 48.7173 67.4713 47.728C67.9006 46.7387 68.1153 45.5627 68.1153 44.2C68.1153 42.8373 67.9006 41.6613 67.4713 40.672C67.0419 39.6827 66.4026 38.922 65.5533 38.39C64.7039 37.858 63.6446 37.592 62.3753 37.592H58.6233V50.808ZM83.8716 54.392C82.0329 54.392 80.5116 54.028 79.3076 53.3C78.1129 52.572 77.2216 51.55 76.6336 50.234C76.0456 48.918 75.7516 47.3733 75.7516 45.6V34.4H79.3356V44.676C79.3356 45.6093 79.3963 46.4633 79.5176 47.238C79.6389 48.0033 79.8583 48.666 80.1756 49.226C80.5023 49.7767 80.9643 50.2013 81.5616 50.5C82.1589 50.7987 82.9289 50.948 83.8716 50.948C84.8143 50.948 85.5843 50.7987 86.1816 50.5C86.7789 50.2013 87.2363 49.7767 87.5536 49.226C87.8803 48.666 88.1043 48.0033 88.2256 47.238C88.3469 46.4633 88.4076 45.6093 88.4076 44.676V34.4H91.9916V45.6C91.9916 47.3733 91.6976 48.918 91.1096 50.234C90.5216 51.55 89.6256 52.572 88.4216 53.3C87.2269 54.028 85.7103 54.392 83.8716 54.392ZM105.733 54.392C103.745 54.392 101.995 53.972 100.483 53.132C98.9712 52.2827 97.7906 51.0973 96.9412 49.576C96.1012 48.0453 95.6812 46.2533 95.6812 44.2C95.6812 42.1467 96.1152 40.3593 96.9832 38.838C97.8606 37.3073 99.0646 36.122 100.595 35.282C102.126 34.4327 103.876 34.008 105.845 34.008C106.881 34.008 107.829 34.12 108.687 34.344C109.546 34.5587 110.288 34.8293 110.913 35.156L110.521 38.572C109.812 38.2453 109.079 37.9793 108.323 37.774C107.577 37.5593 106.741 37.452 105.817 37.452C104.445 37.452 103.297 37.7413 102.373 38.32C101.459 38.8987 100.768 39.6967 100.301 40.714C99.8346 41.7313 99.6012 42.8933 99.6012 44.2C99.6012 45.5067 99.8299 46.6687 100.287 47.686C100.745 48.7033 101.426 49.5013 102.331 50.08C103.246 50.6587 104.38 50.948 105.733 50.948C106.676 50.948 107.521 50.8453 108.267 50.64C109.014 50.4347 109.765 50.164 110.521 49.828L110.913 53.244C110.176 53.5893 109.364 53.8647 108.477 54.07C107.6 54.2847 106.685 54.392 105.733 54.392ZM118.512 54V37.872H112.968V34.4H127.64V37.872H122.096V54H118.512ZM130.992 54V34.4H134.576V54H130.992ZM148.162 54.392C146.295 54.392 144.634 53.972 143.178 53.132C141.722 52.2827 140.579 51.0973 139.748 49.576C138.917 48.0453 138.502 46.2533 138.502 44.2C138.502 42.1467 138.917 40.3593 139.748 38.838C140.579 37.3073 141.722 36.122 143.178 35.282C144.634 34.4327 146.295 34.008 148.162 34.008C150.029 34.008 151.69 34.4327 153.146 35.282C154.602 36.122 155.745 37.3073 156.576 38.838C157.407 40.3593 157.822 42.1467 157.822 44.2C157.822 46.2533 157.407 48.0453 156.576 49.576C155.745 51.0973 154.602 52.2827 153.146 53.132C151.69 53.972 150.029 54.392 148.162 54.392ZM148.162 50.92C149.469 50.92 150.561 50.6307 151.438 50.052C152.315 49.4733 152.973 48.68 153.412 47.672C153.851 46.6547 154.07 45.4973 154.07 44.2C154.07 42.9027 153.851 41.75 153.412 40.742C152.973 39.7247 152.315 38.9267 151.438 38.348C150.561 37.7693 149.469 37.48 148.162 37.48C146.855 37.48 145.763 37.7693 144.886 38.348C144.009 38.9267 143.351 39.7247 142.912 40.742C142.473 41.75 142.254 42.9027 142.254 44.2C142.254 45.4973 142.473 46.6547 142.912 47.672C143.351 48.68 144.009 49.4733 144.886 50.052C145.763 50.6307 146.855 50.92 148.162 50.92ZM161.735 54V34.4H165.263L173.635 47.056V34.4H177.219V54H174.279L165.319 40.56V54H161.735ZM188 54.392C187.207 54.392 186.39 54.3127 185.55 54.154C184.71 54.0047 183.931 53.8227 183.212 53.608C182.494 53.384 181.924 53.1693 181.504 52.964L181.924 49.156C182.578 49.4733 183.259 49.7673 183.968 50.038C184.678 50.3087 185.406 50.528 186.152 50.696C186.899 50.864 187.655 50.948 188.42 50.948C189.372 50.948 190.138 50.7613 190.716 50.388C191.295 50.0147 191.584 49.4453 191.584 48.68C191.584 48.092 191.421 47.6207 191.094 47.266C190.768 46.902 190.268 46.58 189.596 46.3C188.924 46.0107 188.066 45.684 187.02 45.32C185.975 44.956 185.037 44.5453 184.206 44.088C183.376 43.6213 182.718 43.0333 182.232 42.324C181.747 41.6147 181.504 40.7093 181.504 39.608C181.504 38.5253 181.77 37.564 182.302 36.724C182.834 35.8747 183.628 35.212 184.682 34.736C185.746 34.2507 187.067 34.008 188.644 34.008C189.839 34.008 190.978 34.1433 192.06 34.414C193.143 34.6753 194.067 34.96 194.832 35.268L194.468 38.936C193.367 38.4413 192.331 38.068 191.36 37.816C190.399 37.5547 189.419 37.424 188.42 37.424C187.375 37.424 186.568 37.5967 185.998 37.942C185.429 38.2873 185.144 38.8053 185.144 39.496C185.144 40.0467 185.303 40.49 185.62 40.826C185.938 41.162 186.39 41.4513 186.978 41.694C187.566 41.9273 188.271 42.1747 189.092 42.436C190.511 42.884 191.701 43.3787 192.662 43.92C193.633 44.452 194.361 45.1007 194.846 45.866C195.341 46.622 195.588 47.56 195.588 48.68C195.588 49.24 195.5 49.8513 195.322 50.514C195.145 51.1673 194.795 51.788 194.272 52.376C193.75 52.964 192.984 53.4493 191.976 53.832C190.978 54.2053 189.652 54.392 188 54.392Z" fill="#00B4BD"/>
</svg>
